<svg t="1589620027229" class="icon" viewBox="0 0 1024 1024" version="1.1" xmlns="http://www.w3.org/2000/svg" p-id="3790" xmlns:xlink="http://www.w3.org/1999/xlink"><path d="M642.090667 789.333333a42.666667 42.666667 0 0 1 4.949333 85.034667l-4.949333 0.298667H170.666667a42.666667 42.666667 0 0 1-4.992-85.034667L170.666667 789.333333h471.424z m211.242666-213.333333a42.666667 42.666667 0 0 1 4.992 85.034667L853.333333 661.333333H170.666667a42.666667 42.666667 0 0 1-4.992-85.034666L170.666667 576h682.666666z m-468.053333-213.333333a42.666667 42.666667 0 0 1 4.992 85.034666l-4.992 0.298667H170.666667a42.666667 42.666667 0 0 1-4.992-85.034667L170.666667 362.666667h214.613333zM853.333333 149.333333a42.666667 42.666667 0 0 1 4.992 85.034667L853.333333 234.666667H170.666667a42.666667 42.666667 0 0 1-4.992-85.034667L170.666667 149.333333h682.666666z" fill="currentColor" p-id="3791"></path></svg>