<svg t="1589619944837" class="icon" viewBox="0 0 1024 1024" version="1.1" xmlns="http://www.w3.org/2000/svg" p-id="2379" xmlns:xlink="http://www.w3.org/1999/xlink"><path d="M855.424 789.333333a42.666667 42.666667 0 0 1 4.949333 85.034667l-4.949333 0.298667H384a42.666667 42.666667 0 0 1-4.992-85.034667L384 789.333333h471.424z m-2.090667-213.333333a42.666667 42.666667 0 0 1 4.992 85.034667L853.333333 661.333333H170.666667a42.666667 42.666667 0 0 1-4.992-85.034666L170.666667 576h682.666666z m1.28-213.333333a42.666667 42.666667 0 0 1 4.992 85.034666l-4.992 0.298667H640a42.666667 42.666667 0 0 1-4.992-85.034667L640 362.666667h214.613333z m-1.28-213.333334a42.666667 42.666667 0 0 1 4.992 85.034667L853.333333 234.666667H170.666667a42.666667 42.666667 0 0 1-4.992-85.034667L170.666667 149.333333h682.666666z" fill="currentColor" p-id="2380"></path></svg>