<svg t="1589620004307" class="icon" viewBox="0 0 1024 1024" version="1.1" xmlns="http://www.w3.org/2000/svg" p-id="2852" xmlns:xlink="http://www.w3.org/1999/xlink"><path d="M853.333333 789.333333a42.666667 42.666667 0 0 1 4.992 85.034667L853.333333 874.666667H170.666667a42.666667 42.666667 0 0 1-4.992-85.034667L170.666667 789.333333h682.666666z m0-213.333333a42.666667 42.666667 0 0 1 4.992 85.034667L853.333333 661.333333H170.666667a42.666667 42.666667 0 0 1-4.992-85.034666L170.666667 576h682.666666z m0-213.333333a42.666667 42.666667 0 0 1 4.992 85.034666L853.333333 448H170.666667a42.666667 42.666667 0 0 1-4.992-85.034667L170.666667 362.666667h682.666666z m0-213.333334a42.666667 42.666667 0 0 1 4.992 85.034667L853.333333 234.666667H170.666667a42.666667 42.666667 0 0 1-4.992-85.034667L170.666667 149.333333h682.666666z" fill="currentColor" p-id="2853"></path></svg>