<svg t="1572081757028" class="icon" viewBox="0 0 1024 1024" version="1.1" xmlns="http://www.w3.org/2000/svg" p-id="4182" xmlns:xlink="http://www.w3.org/1999/xlink"><defs><style type="text/css"></style></defs><path d="M707.71456 527.232c-24.1664-30.7456-229.9136-237.5168-258.6368-258.4832-29.4656-21.4272-63.616-22.8096-93.952-11.5456-17.1008 6.3488-32.8704 16.7168-45.6704 29.6448-12.9024 13.056-23.1168 29.0304-28.9792 46.464-10.0352 29.9008-7.296 63.616 16.0512 94.3104 19.5328 25.6512 198.0928 204.5952 222.8992 222.9248 22.4 16.6144 46.592 20.224 67.8144 14.9248 13.0304-3.2768 24.8832-10.0096 34.4832-19.2 9.472-9.088 16.7424-20.7104 20.7616-33.8432 6.7328-22.0672 4.2752-48.256-12.416-73.728l-1.2288-1.8944-140.7232-140.6976c-4.224-4.2496-9.0368-14.1312-13.3888-26.3936a222.75072 222.75072 0 0 1-7.2448-25.2928l209.05216 209.0752c33.28 42.9056 37.6064 83.0976 25.344 114.2784-5.70624 14.5408-15.0016 27.3152-26.5472 37.5296-11.75296 10.4192-25.9072 18.304-41.1136 22.9888-33.2032 10.1632-71.552 4.6336-101.1712-24.1152l-225.8944-225.8688-28.8256 28.8256 226.1248 226.0224c41.52064 40.3968 95.232 48.256 141.696 33.9968 20.6592-6.3488 39.9616-17.152 56.0896-31.4368 16.3072-14.4384 29.44-32.512 37.5552-53.12 17.27744-43.904 12.28544-98.944-32.07936-155.3664z m-110.62272 35.4816c8.4224 13.7728 9.80736 27.0592 6.5024 37.888-1.92 6.272-5.4784 11.904-10.0864 16.3328-4.5056 4.3008-10.0864 7.4752-16.1792 9.0112-9.7536 2.432-21.1456 0.6912-32.2816-7.0144l-217.4208-217.4464c-13.056-18.1504-14.5152-37.8368-8.6528-55.2704 3.78624-11.2384 10.64704-21.8368 19.4304-30.72 8.8832-8.9856 19.5584-16.1024 30.848-20.2752 17.792-6.6048 37.5552-6.1184 54.528 5.504l24.8064 24.8064-25.088 2.8672c2.048 17.8688 6.8096 37.7856 12.8512 54.8352 6.2976 17.7152 14.3616 33.1008 22.912 41.6768l137.8304 137.8048z" p-id="4183"></path></svg>