<svg t="1572081794881" class="icon" viewBox="0 0 1024 1024" version="1.1" xmlns="http://www.w3.org/2000/svg" p-id="5296" xmlns:xlink="http://www.w3.org/1999/xlink"><defs><style type="text/css"></style></defs><path d="M469.51936 549.89824c0.43264-10.17856-5.58592-12.47488-12.27008-12.60288h-74.61888c0.256-80.5376 16.19968-139.2896 70.68928-157.6064v-76.02176c-31.58272 3.01056-157.6064 39.72096-157.6064 211.9936v178.62656c0 16.09728 3.52 23.26528 22.0416 22.39744h127.09376c21.12256 0 25.12896-8.80128 24.66816-21.9392v-144.84736zM716.51328 694.74816v-144.84992c0.43264-10.17856-5.58592-12.47488-12.27008-12.60288h-74.61888c0.256-80.5376 16.19968-139.2896 70.68928-157.6064v-76.02176c-31.58272 3.01056-157.6064 39.72096-157.632 211.9936v178.62656c0 16.09728 3.5456 23.26528 22.0672 22.39744h127.09376c21.12512 0.00256 25.10592-8.79872 24.67072-21.93664z" p-id="5297"></path></svg>