<svg t="1589619916930" class="icon" viewBox="0 0 1024 1024" version="1.1" xmlns="http://www.w3.org/2000/svg" p-id="2111" xmlns:xlink="http://www.w3.org/1999/xlink"><path d="M464.853333 151.637333a42.666667 42.666667 0 0 1-19.2 57.216c-63.317333 31.573333-112.597333 87.978667-147.925333 171.178667-12.074667 28.458667-21.76 69.589333-28.842667 119.594667-4.394667 31.146667-7.552 64.213333-9.685333 97.706666H384a85.333333 85.333333 0 0 1 85.333333 85.333334v128a85.333333 85.333333 0 0 1-85.333333 85.333333H256a85.333333 85.333333 0 0 1-85.333333-85.333333v-128l0.213333-17.066667c0.256-13.312 0.768-28.074667 1.493333-43.989333 2.133333-45.525333 5.973333-91.093333 12.032-133.888 7.978667-56.746667 19.2-104.448 34.773334-141.056 42.88-100.949333 105.813333-173.013333 188.458666-214.186667a42.666667 42.666667 0 0 1 57.216 19.2z m384 0a42.666667 42.666667 0 0 1-19.2 57.216c-63.317333 31.573333-112.597333 87.978667-147.925333 171.178667-12.074667 28.458667-21.76 69.589333-28.842667 119.594667-4.394667 31.146667-7.552 64.213333-9.685333 97.706666H768a85.333333 85.333333 0 0 1 85.333333 85.333334v128a85.333333 85.333333 0 0 1-85.333333 85.333333h-128a85.333333 85.333333 0 0 1-85.333333-85.333333v-128l0.213333-17.066667c0.256-13.312 0.768-28.074667 1.493333-43.989333 2.133333-45.525333 5.973333-91.093333 12.032-133.888 7.978667-56.746667 19.2-104.448 34.773334-141.056 42.88-100.949333 105.813333-173.013333 188.458666-214.186667a42.666667 42.666667 0 0 1 57.216 19.2z" fill="currentColor" p-id="2112"></path></svg>