<svg t="1572081835161" class="icon" viewBox="0 0 1024 1024" version="1.1" xmlns="http://www.w3.org/2000/svg" p-id="5629" xmlns:xlink="http://www.w3.org/1999/xlink"><defs><style type="text/css"></style></defs><path d="M646.77376 498.24512c37.15584-26.33984 55.744-62.0928 55.744-107.25376 0-90.78272-57.63072-136.18432-172.8768-136.18432h-222.26944V769.2032h218.0352c47.03488 0 88.19968-10.58304 123.4816-31.75168 45.16096-26.3424 67.74016-64.21248 67.74016-113.60768 0-57.38496-23.28576-99.24608-69.85472-125.59872z m-268.1344-175.69536h149.59104c66.7904 0 100.19584 22.81984 100.19584 68.44416 0 22.5792-10.58304 40.92416-31.75168 55.03744-20.70528 14.58688-48.22272 21.8752-82.55744 21.8752h-135.47776v-145.3568z m230.03136 356.33664c-22.1184 15.05792-50.5728 22.5792-85.37856 22.5792h-144.65024v-166.528h144.65024c34.33216 0 61.8496 7.05792 82.55744 21.16608 23.98976 15.5264 35.98592 38.10304 35.98592 67.74016-0.00256 21.1712-11.06176 39.51616-33.1648 55.04256z" p-id="5630"></path></svg>
