<svg t="1572426643720" class="icon" viewBox="0 0 1024 1024" version="1.1" xmlns="http://www.w3.org/2000/svg" p-id="1506" xmlns:xlink="http://www.w3.org/1999/xlink"><defs><style type="text/css"></style></defs><path d="M561.44375 301.0625l-18.478125 50.7515625a42.1875 42.1875 0 1 1-79.3125-28.85625L471.66875 301.0625H427.625a42.1875 42.1875 0 1 1 0-84.375h295.3125a42.1875 42.1875 0 0 1 0 84.375h-161.49375zM476.0140625 535.709375l-81.253125 223.2140625a42.1875 42.1875 0 1 1-79.2703125-28.85625l94.7109375-260.2125-163.6875-163.6875a42.1875 42.1875 0 0 1 59.653125-59.653125l477.309375 477.309375a42.1875 42.1875 0 1 1-59.653125 59.653125l-247.809375-247.7671875z" fill="#666666" p-id="1507"></path></svg>