<svg t="1589619824097" class="icon" viewBox="0 0 1024 1024" version="1.1" xmlns="http://www.w3.org/2000/svg" p-id="1563" xmlns:xlink="http://www.w3.org/1999/xlink"><path d="M305.749333 810.666667a42.666667 42.666667 0 0 1 4.949334 85.034666L305.749333 896H170.666667a42.666667 42.666667 0 0 1-4.992-85.034667L170.666667 810.666667h135.082666z m372.181334-709.632l181.034666 181.034666a85.333333 85.333333 0 0 1 0 120.661334l-304.512 304.512L256 704.896 165.034667 613.973333a85.333333 85.333333 0 0 1 0-120.661333l392.234666-392.234667c15.786667-15.786667 36.181333-24.064 56.874667-24.917333h6.912c20.650667 0.853333 41.088 9.130667 56.874667 24.917333z m-60.330667 60.330666l-392.234667 392.234667 66.261334 66.218667 227.754666 1.792 279.253334-279.210667-181.034667-181.034667z" fill="currentColor" p-id="1564"></path></svg>