<?xml version="1.0" encoding="UTF-8"?>
<svg width="24px" height="24px" viewBox="0 0 24 24" version="1.1" xmlns="http://www.w3.org/2000/svg" xmlns:xlink="http://www.w3.org/1999/xlink">
    <!-- Generator: Sketch 64 (93537) - https://sketch.com -->
    <title>字颜色-编辑器</title>
    <desc>Created with Sketch.</desc>
    <g id="ICON" stroke="none" stroke-width="1" fill="none" fill-rule="evenodd">
        <path d="M19.5,17 C20.0522847,17 20.5,17.4477153 20.5,18 L20.5,21 C20.5,21.5522847 20.0522847,22 19.5,22 L4.5,22 C3.94771525,22 3.5,21.5522847 3.5,21 L3.5,18 C3.5,17.4477153 3.94771525,17 4.5,17 L19.5,17 Z M12.8467738,2.96699941 L12.9090648,3.08334529 L18.4090648,15.0833453 C18.6391769,15.5854079 18.4187173,16.1789528 17.9166547,16.4090648 C17.4504537,16.6227403 16.9053726,16.4479127 16.6456419,16.0198677 L16.5909352,15.9166547 L14.9037572,12.235 L9.09575719,12.235 L7.40906482,15.9166547 C7.19538935,16.3828557 6.6683458,16.6062459 6.19216459,16.4515396 L6.08334529,16.4090648 C5.61714427,16.1953894 5.3937541,15.6683458 5.54846038,15.1921646 L5.59093518,15.0833453 L11.0909352,3.08334529 C11.4286614,2.34648808 12.4383181,2.30770612 12.8467738,2.96699941 Z M12,5.9 L10.0127572,10.235 L13.9867572,10.235 L12,5.9 Z" id="形状结合" fill="#000000" fill-rule="nonzero"></path>
    </g>
</svg>