<svg t="1589676533060" class="icon" viewBox="0 0 1024 1024" version="1.1" xmlns="http://www.w3.org/2000/svg" p-id="1435" xmlns:xlink="http://www.w3.org/1999/xlink"><path d="M832 725.333333a42.666667 42.666667 0 0 1 42.666667 42.666667v128a42.666667 42.666667 0 0 1-42.666667 42.666667h-640a42.666667 42.666667 0 0 1-42.666667-42.666667v-128a42.666667 42.666667 0 0 1 42.666667-42.666667h640zM548.138667 126.592l2.645333 4.949333 234.666667 512a42.666667 42.666667 0 0 1-75.221334 39.978667l-2.346666-4.394667-71.978667-157.098666H388.096l-71.978667 157.098666a42.666667 42.666667 0 0 1-51.925333 22.826667l-4.650667-1.834667a42.666667 42.666667 0 0 1-22.826666-51.925333l1.834666-4.650667 234.666667-512c14.421333-31.445333 57.472-33.066667 74.922667-4.949333zM512 251.733333l-84.778667 184.96h169.557334L512 251.733333z" fill="currentColor" p-id="1436"></path></svg>