<svg t="1572081772074" class="icon" viewBox="0 0 1024 1024" version="1.1" xmlns="http://www.w3.org/2000/svg" p-id="4628" xmlns:xlink="http://www.w3.org/1999/xlink"><defs><style type="text/css"></style></defs><path d="M169.0368 258.0992h-26.1888v350.5152l-0.9216 1.92 0.9216 0.4352v154.9568h739.2512v-507.8272h-713.0624z m26.2144 455.3984v-134.272c8.8576-16.6912 17.152-30.6176 25.8816-42.9056 15.3856-21.6832 32.512-38.9632 57.1136-58.752 7.5008-6.0416 17.5872-11.1104 27.008-11.6736 5.6576-0.3328 11.1616 1.2032 15.2576 5.8368 5.6576 6.272 14.4128 17.8688 24.6528 31.4624 38.3232 50.816 95.8208 127.0272 133.376 105.2928 7.14496-4.1216 13.184-7.8336 19.5072-11.6992 41.5488-25.2416 95.8208-58.1888 135.4496-35.9424 39.7568 22.3232 123.0848 100.7616 168.7552 143.7696l9.472 8.8832h-616.4736z m634.39616-29.568l-4.1984-3.9936c-46.7712-44.0576-132.1472-124.3904-175.3856-148.6848-56.7808-31.9232-120.6784 6.9376-169.6512 36.6592l-18.8672 11.2896c-11.5456 6.656-58.2144-55.168-89.344-96.4352-10.752-14.2592-19.9424-26.4192-26.5216-33.6896-12.032-13.4144-27.1616-17.9456-42.4192-17.024-16.9728 1.024-34.048 9.2928-46.23616 19.0976-26.2144 21.0944-44.9024 39.808-61.7728 63.104h-0.02304v-203.7504h634.4192v373.4272z" p-id="4629"></path><path d="M699.37664 521.98144c23.66464 0 45.89824-9.51808 62.60224-26.80064 16.43264-17.00864 25.47968-39.51872 25.47968-63.38048 0-23.85152-9.04704-46.36416-25.47456-63.3984-16.68352-17.28256-38.91712-26.8032-62.6048-26.8032-23.66464 0-45.89824 9.51808-62.60224 26.80064-16.43264 17.00864-25.47968 39.52128-25.47968 63.40096 0 23.86688 9.05984 46.40512 25.52832 63.47264 16.66816 17.22368 38.88384 26.70848 62.55104 26.70848z m-44.19072-135.79264c11.83744-12.24448 27.5328-18.98752 44.19584-18.98752 16.6784 0 32.3712 6.74048 44.18304 18.97984 11.79904 12.22912 18.29632 28.43136 18.29632 45.6192 0 17.19296-6.49472 33.38496-18.28864 45.5936-11.83744 12.24448-27.5328 18.98752-44.19584 18.98752-16.67328 0-32.35328-6.71744-44.14208-18.89792-11.82464-12.25472-18.33728-28.48-18.33728-45.6832 0-17.20576 6.49472-33.40544 18.28864-45.61152z" p-id="4630"></path></svg>