<svg t="1589620013058" class="icon" viewBox="0 0 1024 1024" version="1.1" xmlns="http://www.w3.org/2000/svg" p-id="3254" xmlns:xlink="http://www.w3.org/1999/xlink"><path d="M853.333333 128a85.333333 85.333333 0 0 1 85.333334 85.333333v597.333334a85.333333 85.333333 0 0 1-85.333334 85.333333H170.666667a85.333333 85.333333 0 0 1-85.333334-85.333333V213.333333a85.333333 85.333333 0 0 1 85.333334-85.333333h682.666666zM170.666667 542.805333V810.666667h371.157333C464.384 539.008 345.429333 457.429333 170.666667 542.762667z m390.4 81.066667l2.645333 5.290667c25.557333 51.2 47.786667 111.786667 66.56 181.504h113.664c-46.378667-122.282667-106.88-183.168-182.869333-186.794667zM853.333333 213.333333H170.666667l0.042666 236.202667c153.130667-60.117333 276.906667-13.568 366.592 131.968 109.653333-9.642667 194.389333 68.693333 252.074667 229.12L853.333333 810.666667V213.333333z m-168.405333 51.626667l4.010667 3.541333 104.106666 104.106667a42.666667 42.666667 0 0 1-56.32 63.872l-4.010666-3.541333-31.317334-31.274667 0.042667 107.690667a42.666667 42.666667 0 0 1-85.034667 4.949333l-0.298666-4.949333-0.042667-107.648-31.232 31.232a42.666667 42.666667 0 0 1-56.32 3.541333l-4.010667-3.541333a42.666667 42.666667 0 0 1-3.541333-56.32l3.541333-4.010667 104.106667-104.106667a42.666667 42.666667 0 0 1 56.32-3.541333z" fill="currentColor" p-id="3255"></path></svg>