<svg t="1589619779177" class="icon" viewBox="0 0 1024 1024" version="1.1" xmlns="http://www.w3.org/2000/svg" p-id="1425" xmlns:xlink="http://www.w3.org/1999/xlink"><path d="M144.512 734.293333a42.666667 42.666667 0 0 1 56.32 3.541334l73.941333 73.898666 73.941334-73.898666 4.010666-3.541334a42.666667 42.666667 0 0 1 56.32 63.872l-104.106666 104.106667-4.010667 3.541333a42.666667 42.666667 0 0 1-56.32-3.541333l-104.106667-104.106667-3.541333-4.010666a42.666667 42.666667 0 0 1 3.541333-56.32zM853.333333 789.333333a42.666667 42.666667 0 0 1 4.992 85.034667L853.333333 874.666667h-341.333333a42.666667 42.666667 0 0 1-4.992-85.034667L512 789.333333h341.333333z m0-213.333333a42.666667 42.666667 0 0 1 4.992 85.034667L853.333333 661.333333h-341.333333a42.666667 42.666667 0 0 1-4.992-85.034666L512 576h341.333333z m0-213.333333a42.666667 42.666667 0 0 1 4.992 85.034666L853.333333 448h-341.333333a42.666667 42.666667 0 0 1-4.992-85.034667L512 362.666667h341.333333zM300.928 115.626667l4.010667 3.541333 104.106666 104.106667a42.666667 42.666667 0 0 1-56.32 63.872l-4.010666-3.541334L274.773333 209.706667 200.832 283.605333a42.666667 42.666667 0 0 1-56.32 3.541334l-4.010667-3.541334a42.666667 42.666667 0 0 1-3.541333-56.32l3.541333-4.010666 104.106667-104.106667a42.666667 42.666667 0 0 1 56.32-3.541333zM853.333333 149.333333a42.666667 42.666667 0 0 1 4.992 85.034667L853.333333 234.666667h-341.333333a42.666667 42.666667 0 0 1-4.992-85.034667L512 149.333333h341.333333z" fill="currentColor" p-id="1426"></path><path d="M274.773333 275.968a42.666667 42.666667 0 0 1 42.368 37.674667l0.298667 4.992v110.592a42.666667 42.666667 0 0 1-85.034667 4.949333l-0.298666-4.949333V318.634667a42.666667 42.666667 0 0 1 42.666666-42.666667zM274.773333 554.666667a42.666667 42.666667 0 0 1 42.368 37.674666L317.44 597.333333v110.592a42.666667 42.666667 0 0 1-85.034667 4.949334l-0.298666-4.949334V597.333333a42.666667 42.666667 0 0 1 42.666666-42.666666z" fill="currentColor" p-id="1427"></path></svg>