<svg t="1589620016813" class="icon" viewBox="0 0 1024 1024" version="1.1" xmlns="http://www.w3.org/2000/svg" p-id="3388" xmlns:xlink="http://www.w3.org/1999/xlink"><path d="M483.242667 147.712l158.378666 158.378667a186.581333 186.581333 0 0 1 49.194667 177.066666l121.472 121.6a186.666667 186.666667 0 0 1 0 263.978667l-7.552 7.552a186.666667 186.666667 0 0 1-263.978667 0l-158.378666-158.378667a186.581333 186.581333 0 0 1-49.152-177.109333l-121.514667-121.6a186.666667 186.666667 0 0 1 0-263.936l7.552-7.552a186.666667 186.666667 0 0 1 263.978667 0z m158.378666 422.4l-7.552 7.509333a186.752 186.752 0 0 1-217.728 33.877334c3.84 14.762667 11.008 28.842667 21.632 40.96l4.736 5.12 158.378667 158.378666a101.333333 101.333333 0 0 0 138.24 4.736l5.12-4.736 7.509333-7.552a101.333333 101.333333 0 0 0 4.736-138.24l-4.736-5.077333-102.826666-102.912a189.610667 189.610667 0 0 1-7.509334 7.893333z m-186.282666-68.138667l-5.12 4.736-7.509334 7.552c-2.56 2.56-4.906667 5.12-7.082666 7.893334l-5.205334-4.864a101.333333 101.333333 0 0 0 138.24 4.736l5.12-4.736 7.509334-7.552c2.56-2.56 4.906667-5.12 7.082666-7.893334l5.205334 4.864a101.333333 101.333333 0 0 0-138.24-4.736z m-170.666667-298.666666l-5.12 4.736-7.509333 7.552a101.333333 101.333333 0 0 0-4.736 138.24l4.736 5.077333 102.826666 102.912c2.432-2.688 4.906667-5.333333 7.509334-7.893333l7.552-7.552a186.752 186.752 0 0 1 217.728-33.877334 100.138667 100.138667 0 0 0-21.632-40.96l-4.736-5.12-158.378667-158.378666a101.333333 101.333333 0 0 0-138.24-4.736z" fill="currentColor" p-id="3389"></path></svg>