<svg t="1572081768060" class="icon" viewBox="0 0 1024 1024" version="1.1" xmlns="http://www.w3.org/2000/svg" p-id="4517" xmlns:xlink="http://www.w3.org/1999/xlink"><path d="M838.22848 396.51328c-23.11424-23.11168-55.0016-37.45024-90.10432-37.45024h-140.89728c-34.97472 0-66.83904 14.3104-89.97632 37.45024l-0.1024 0.1024a130.24 130.24 0 0 0-10.9184 12.44928 132.50304 132.50304 0 0 0-11.0464-12.55168c-23.11424-23.11168-55.0016-37.45024-90.10432-37.45024h-140.89728c-34.97472 0-66.83904 14.336-89.97632 37.45024l-0.1024 0.1024c-23.11424 23.11424-37.45024 55.0016-37.45024 89.97632v47.296c0 35.10272 14.3616 66.99264 37.45024 90.10432 23.08608 23.08608 55.0016 37.45024 90.10432 37.45024h140.89728c35.00032 0 66.86208-14.3616 89.97632-37.45024l0.1024-0.1024a136.7808 136.7808 0 0 0 10.944-12.44928 132.16 132.16 0 0 0 11.0208 12.55168c23.08608 23.08608 55.0016 37.45024 90.10432 37.45024h140.89728c35.02592 0 66.88768-14.3616 89.97632-37.45024l0.1024-0.1024c23.08864-23.08608 37.45024-54.9504 37.45024-89.97632V486.6176c0-35.10272-14.38976-67.04128-37.45024-90.10432z m-359.85664 140.82048c-0.86784 18.82624-8.90368 35.81696-21.37856 48.36864l-0.1024 0.1024c-13.29152 13.21472-31.63392 21.45536-51.78624 21.45536h-140.89728c-20.15488 0-38.49728-8.29184-51.7888-21.58336-13.31712-13.31712-21.58336-31.65952-21.58336-51.81184V486.5664a73.1392 73.1392 0 0 1 21.45536-51.78624l0.1024-0.1024a73.09568 73.09568 0 0 1 51.78624-21.45536h140.89728c20.15232 0 38.49472 8.29184 51.8144 21.58336 12.52608 12.52608 20.61312 29.568 21.4784 48.36864h-117.62944v54.15936h117.632z m343.12192-3.42016c0 20.18048-8.21504 38.52032-21.45536 51.81184l-0.1024 0.1024c-13.31712 13.21472-31.65952 21.45536-51.81184 21.45536h-140.89728c-20.12928 0-38.49728-8.29184-51.78624-21.58336-12.55168-12.55168-20.61312-29.568-21.50656-48.36864h117.632v-54.15936h-117.632a72.96 72.96 0 0 1 21.40416-48.36864l0.1024-0.1024a73.09568 73.09568 0 0 1 51.7888-21.45536h140.89728c20.15232 0 38.52032 8.29184 51.81184 21.58336 13.29152 13.29152 21.5552 31.63392 21.5552 51.78624v47.29856z" p-id="4518"></path></svg>