<svg t="1589620298593" class="icon" viewBox="0 0 1024 1024" version="1.1" xmlns="http://www.w3.org/2000/svg" p-id="4326" xmlns:xlink="http://www.w3.org/1999/xlink"><path d="M258.96448 464.30464c-28.98176 0-52.47232 23.02464-52.47232 51.41504 0 28.41344 23.49056 51.41504 52.47232 51.41504 28.95616 0 52.47232-23.02464 52.47232-51.41504s-23.51616-51.41504-52.47232-51.41504zM258.96448 267.51488c-28.95616 0-52.47232 23.02464-52.47232 51.41504 0 28.38784 23.51616 51.41504 52.47232 51.41504s52.47232-23.02464 52.47232-51.41504c0-28.38784-23.51616-51.41504-52.47232-51.41504zM258.96448 661.09184c-28.98176 0-52.47232 22.99904-52.47232 51.41504 0 28.41344 23.49056 51.41504 52.47232 51.41504 28.95616 0 52.47232-22.99904 52.47232-51.41504 0-28.38784-23.51616-51.41504-52.47232-51.41504zM374.53312 685.12512h434.72896v54.74048h-434.72896zM370.71616 488.33536h434.72896v54.74048h-434.72896zM374.53312 291.57376h434.72896v54.74048h-434.72896z" fill="currentColor" p-id="4327"></path></svg>