<svg t="1589620323050" class="icon" viewBox="0 0 1024 1024" version="1.1" xmlns="http://www.w3.org/2000/svg" p-id="4460" xmlns:xlink="http://www.w3.org/1999/xlink"><path d="M368.55808 291.76576h431.42912v54.32576h-431.42912zM249.74848 382.19776h25.99936V254.12352h-17.83552c-2.7392 13.79328-14.17728 19.67616-30.4 20.72576v16.86272h22.23616v90.48576zM286.59712 700.75392c13.79328-3.7376 18.52672-18.19392 18.52672-29.9392 0-36.72064-48.51712-42.63168-67.50464-23.66976-7.42144 7.39584-11.13088 16.78592-11.13088 28.1216h25.25696c1.8432-23.82336 27.35616-19.49952 27.35616-4.42624 0 7.37024-1.9968 10.67008-5.93664 14.61248-5.80864 5.83424-9.57184 5.91104-17.01632 5.91104v19.88352c12.71808 0 25.51296 4.29824 25.18016 19.16672-0.4864 20.93056-31.7568 22.69696-31.7568 2.96704v-5.21984h-25.9968v5.93664c0 9.36448 3.45344 17.52832 10.36288 24.41216 14.48448 14.45888 49.31072 14.45888 63.76704 0 6.90944-6.88384 10.36288-15.78752 10.36288-26.6368-0.00256-14.69184-7.1424-26.76992-21.47072-31.11936zM368.58368 682.3296h431.42912v54.32576h-431.42912zM304.84224 491.58912c2.6112-12.05248 0.4864-24.92416-8.62464-34.03264-6.55104-6.55104-17.37472-9.67168-28.1984-9.85344-25.58976-0.384-40.12288 17.11872-41.45408 44.62592h24.15616c0.9216-28.1984 29.9392-26.12736 30.2976-10.82368 0.3072 13.15328-6.24384 18.83392-14.48448 27.84-10.43968 11.46368-40.27648 40.81408-42.93888 54.06976v12.61568h84.49536v-20.72576h-53.40416c13.56288-21.80096 44.14208-36.15744 50.15552-63.71584zM364.77184 487.03488h431.42912v54.32576h-431.42912z" fill="currentColor" p-id="4461"></path></svg>