<svg t="1572081838738" class="icon" viewBox="0 0 1024 1024" version="1.1" xmlns="http://www.w3.org/2000/svg" p-id="5740" xmlns:xlink="http://www.w3.org/1999/xlink"><defs><style type="text/css"></style></defs><path d="M210.432 311.808h171.904v458.496h69.3504V311.808h171.904V254.5408H210.432zM711.8848 459.9296c5.4272-15.872 25.2928-30.0544 38.0672-38.8352 9.984-6.8864 18.5088-13.696 25.4976-20.3776 7.3728-7.0656 13.312-14.1568 17.7664-21.2992 4.608-7.3472 8.064-15.3344 10.3168-23.8336 2.2528-8.448 3.3536-17.4592 3.3536-26.9312 0-11.2384-1.9456-21.4528-5.7856-30.592-3.9168-9.3184-9.856-17.4848-17.7408-24.4224-7.6544-6.656-16.512-11.7248-26.5472-15.104-9.6512-3.2-20.4032-4.8384-32.128-4.8384-31.4112 0-51.3024 10.2656-72.3456 32.128v67.8656c18.1248-19.4304 39.4496-48.6912 69.12-48.6912 17.4336 0 29.6704 7.1936 29.6704 25.856 0 25.8304-21.3504 40.704-40.4992 54.3232-49.92 45.184-66.9952 71.296-67.456 127.5648h170.5216v-52.8128h-101.8112z" p-id="5741"></path></svg>
