<svg t="1589619849790" class="icon" viewBox="0 0 1024 1024" version="1.1" xmlns="http://www.w3.org/2000/svg" p-id="1843" xmlns:xlink="http://www.w3.org/1999/xlink"><path d="M640 149.333333a42.666667 42.666667 0 0 1 4.992 85.034667L640 234.666667h-192v640a42.666667 42.666667 0 0 1-85.034667 4.992L362.666667 874.666667v-640H170.666667a42.666667 42.666667 0 0 1-4.992-85.034667L170.666667 149.333333h469.333333z m158.378667-42.666666l6.826666 0.085333c52.010667 2.048 95.786667 39.210667 95.786667 90.88 0 48.384-30.549333 94.933333-90.197333 140.586667l-11.818667 8.704h106.368a21.333333 21.333333 0 0 1 20.992 17.493333l0.341333 3.84a21.333333 21.333333 0 0 1-17.493333 20.992l-3.84 0.341333H725.333333c-21.930667 0-29.610667-29.141333-10.453333-39.936 96.853333-54.485333 143.445333-106.026667 143.445333-152.064 0-26.624-24.021333-46.976-54.826666-48.213333-32.128-1.28-55.125333 18.602667-56.832 57.941333a21.333333 21.333333 0 1 1-42.666667-1.877333c2.688-60.8 42.624-97.706667 94.378667-98.773333z" fill="currentColor" p-id="1844"></path></svg>