<?xml version="1.0" standalone="no"?><!DOCTYPE svg PUBLIC "-//W3C//DTD SVG 1.1//EN" "http://www.w3.org/Graphics/SVG/1.1/DTD/svg11.dtd"><svg t="1575646072115" class="icon" viewBox="0 0 1024 1024" version="1.1" xmlns="http://www.w3.org/2000/svg" p-id="6488" xmlns:xlink="http://www.w3.org/1999/xlink" width="200" height="200"><defs><style type="text/css"></style></defs><path d="M439.44192 662.38464c-7.2448 2.432-15.1296 3.7888-23.3728 3.7888h-141.38624c-20.1984 0-38.6304-8.32-51.968-21.6576-13.3632-13.3376-21.6576-31.744-21.6576-51.96544v-47.4624c0-20.2752 8.2432-38.7072 21.5296-51.96544l0.1024-0.1024a73.34912 73.34912 0 0 1 51.968-21.5296h141.38624v-54.34624h-141.38624c-35.09504 0-67.06944 14.3872-90.28864 37.5808l-0.1024 0.1024c-23.1936 23.2192-37.5808 55.1936-37.5808 90.28864v47.4624c0 35.2256 14.3872 67.22304 37.5808 90.41664 23.16544 23.168 55.19104 37.5808 90.41664 37.5808h141.38624c14.1312 0 27.8784-2.4064 40.80384-6.7584 13.2352-4.48 25.6-11.136 36.5568-19.4816l-32.91904-43.136a73.7536 73.7536 0 0 1-21.0688 11.18464z" p-id="6489"></path><path d="M324.90752 541.6832h173.28128v54.34624h-173.28128zM720.62208 484.1856l-22.09024-49.45664-135.49824 60.49024 22.0928 49.4592z" p-id="6490"></path><path d="M868.97152 429.50656v-0.3584l-21.2992-48.896c-14.0544-32.2816-40.06144-55.8848-70.52544-67.86304-30.464-11.9552-65.5104-12.3392-97.81504 1.7152l-129.60768 56.47104 21.6576 49.6896 129.61024-56.47104c18.5344-8.064 38.784-7.808 56.3968-0.8704 17.5616 6.912 32.5376 20.48 40.62464 39.0144l18.944 43.52c8.064 18.5088 7.808 38.7328 0.8704 56.36864-6.784 17.2544-19.968 32-37.9648 40.1664l-130.63424 56.9344a73.05728 73.05728 0 0 1-33.5872 5.9392c-11.52-0.63744-22.8352-4.09344-32.8192-9.87904l-27.1872 46.9248a129.37472 129.37472 0 0 0 57.0368 17.1008c19.328 1.1264 39.2448-2.1504 58.21184-10.4192l129.61024-56.47104c32.2816-14.0544 55.88224-40.064 67.86304-70.55104 11.264-28.65664 12.2624-61.42464 0.6144-92.06528z" p-id="6491"></path></svg>