<svg t="1589620020888" class="icon" viewBox="0 0 1024 1024" version="1.1" xmlns="http://www.w3.org/2000/svg" p-id="3522" xmlns:xlink="http://www.w3.org/1999/xlink"><path d="M658.56 195.285333l6.656 6.4 135.765333 135.765334a42.666667 42.666667 0 0 1-56.618666 63.658666l-3.712-3.328-135.765334-135.765333C558.592 215.765333 487.637333 213.333333 446.464 254.464c-39.552 39.594667-38.826667 106.709333 2.432 152.96l5.12 5.461333 135.765333 135.765334 2.986667 2.688c4.992-41.685333-11.989333-82.602667-46.762667-104.32a42.666667 42.666667 0 1 1 45.226667-72.362667c71.253333 44.544 101.248 130.133333 81.92 210.56a101.973333 101.973333 0 0 0 70.144-24.490667l4.906667-4.522666a42.666667 42.666667 0 0 1 60.330666 60.330666c-46.464 46.421333-111.616 62.677333-173.226666 49.92l-90.368 144.64c-59.008 94.378667-179.754667 126.72-270.250667 70.144-87.978667-54.997333-113.024-172.458667-59.733333-266.325333l4.736-7.978667 77.013333-118.229333a42.666667 42.666667 0 0 1 73.984 42.24l-2.474667 4.352L291.626667 652.8c-34.688 55.466667-21.077333 125.141333 28.288 156.032 47.488 29.653333 112.725333 13.824 148.48-36.778667l4.138666-6.229333 83.84-134.058667a213.973333 213.973333 0 0 1-20.266666-16.426666l-6.656-6.4-135.765334-135.765334c-78.677333-78.72-82.986667-203.605333-7.552-279.04 73.386667-73.386667 193.493333-71.381333 272.426667 1.109334z" fill="currentColor" p-id="3523"></path></svg>